<svg width="15" height="12" viewBox="0 0 15 12" fill="none" xmlns="http://www.w3.org/2000/svg">
<path d="M12.6981 0.995235C11.7418 0.535265 10.7169 0.195287 9.64502 0.00196665C9.63548 1.20538e-05 9.62559 0.00127167 9.61675 0.0055713C9.6079 0.00987094 9.60053 0.0169979 9.59565 0.0259651C9.4644 0.271949 9.31816 0.592595 9.21566 0.845911C8.07888 0.664748 6.92317 0.664748 5.78638 0.845911C5.67222 0.56517 5.54348 0.29143 5.40077 0.0259651C5.39593 0.0168875 5.38861 0.00959932 5.37979 0.0050732C5.37097 0.000547074 5.36106 -0.00100181 5.3514 0.00063334C4.28018 0.193954 3.25521 0.533932 2.29836 0.994568C2.29013 0.998251 2.28315 1.00453 2.27836 1.01257C0.333416 4.06237 -0.199694 7.03684 0.0621736 9.97398C0.0629023 9.98117 0.0649957 9.98813 0.0683265 9.99444C0.0716573 10.0007 0.0761557 10.0063 0.081548 10.0106C1.21676 10.8922 2.48294 11.5638 3.82706 11.9972C3.83643 12.0003 3.84646 12.0002 3.85582 11.9972C3.86519 11.9941 3.87346 11.988 3.87956 11.9798C4.1683 11.5665 4.4258 11.1299 4.64579 10.6713C4.65892 10.6446 4.64642 10.6126 4.62017 10.6019C4.21643 10.4398 3.82524 10.2441 3.4502 10.0166C3.44346 10.0125 3.43778 10.0067 3.43367 9.99969C3.42957 9.99267 3.42716 9.98467 3.42666 9.97641C3.42616 9.96815 3.4276 9.95989 3.43083 9.95237C3.43407 9.94485 3.43901 9.9383 3.4452 9.93331C3.52395 9.87132 3.6027 9.80666 3.67769 9.74199C3.68444 9.73618 3.69258 9.73248 3.70118 9.7313C3.70979 9.73012 3.71853 9.73152 3.72644 9.73533C6.18075 10.9113 8.8388 10.9113 11.2643 9.73533C11.2723 9.73129 11.2811 9.72971 11.2898 9.73077C11.2986 9.73184 11.3068 9.73549 11.3137 9.74133C11.3887 9.80665 11.4668 9.87132 11.5462 9.93331C11.5525 9.9382 11.5575 9.94466 11.5608 9.95211C11.5642 9.95957 11.5657 9.9678 11.5653 9.97605C11.565 9.98431 11.5627 9.99234 11.5587 9.99942C11.5547 10.0065 11.5491 10.0124 11.5425 10.0166C11.1687 10.246 10.78 10.4399 10.3719 10.6013C10.3656 10.6037 10.3599 10.6075 10.3551 10.6125C10.3504 10.6175 10.3466 10.6235 10.3442 10.6301C10.3418 10.6367 10.3407 10.6438 10.3411 10.6509C10.3414 10.658 10.3432 10.665 10.3463 10.6713C10.5712 11.1292 10.8287 11.5652 11.1119 11.9792C11.1177 11.9877 11.1259 11.994 11.1353 11.9974C11.1447 12.0007 11.1549 12.0009 11.1644 11.9978C12.5108 11.5656 13.779 10.8938 14.9155 10.0106C14.921 10.0065 14.9257 10.0012 14.9291 9.99495C14.9326 9.98874 14.9348 9.98182 14.9355 9.97464C15.248 6.57887 14.4118 3.6284 12.7174 1.0139C12.7133 1.0054 12.7064 0.99878 12.6981 0.995235ZM5.01266 8.18543C4.27393 8.18543 3.66457 7.47281 3.66457 6.59887C3.66457 5.72426 4.26205 5.0123 5.01266 5.0123C5.76888 5.0123 6.37262 5.73026 6.36074 6.59887C6.36074 7.47348 5.76326 8.18543 5.01266 8.18543ZM9.99689 8.18543C9.25753 8.18543 8.6488 7.47281 8.6488 6.59887C8.6488 5.72426 9.24566 5.0123 9.99689 5.0123C10.7531 5.0123 11.3568 5.73026 11.345 6.59887C11.345 7.47348 10.7537 8.18543 9.99689 8.18543Z" fill="white"/>
</svg>
