<svg width="14" height="12" viewBox="0 0 14 12" fill="none" xmlns="http://www.w3.org/2000/svg">
<path d="M14 1.42342C13.4852 1.66396 12.9321 1.82649 12.3507 1.89995C12.9506 1.52145 13.3994 0.925741 13.6134 0.223974C13.0498 0.576974 12.4329 0.825448 11.7896 0.958593C11.357 0.471576 10.784 0.148773 10.1595 0.0403016C9.53511 -0.06817 8.89419 0.0437586 8.33627 0.35871C7.77835 0.673661 7.33466 1.17401 7.07408 1.78209C6.81351 2.39016 6.75062 3.07193 6.89518 3.72154C5.75309 3.66108 4.63581 3.34809 3.61587 2.80288C2.59593 2.25767 1.69611 1.49244 0.974808 0.556828C0.728177 1.0054 0.586365 1.52549 0.586365 2.07938C0.58609 2.578 0.702548 3.069 0.925407 3.50879C1.14827 3.94858 1.47064 4.32357 1.86391 4.60049C1.40782 4.58519 0.961782 4.45524 0.562935 4.22148V4.26048C0.562889 4.95983 0.792322 5.63765 1.2123 6.17894C1.63229 6.72023 2.21695 7.09165 2.86708 7.23017C2.44398 7.3509 2.00038 7.36869 1.56981 7.28218C1.75324 7.88392 2.11054 8.41013 2.5917 8.78712C3.07286 9.16412 3.65378 9.37303 4.25315 9.38462C3.23569 10.2268 1.97914 10.6836 0.685634 10.6816C0.456502 10.6816 0.227564 10.6675 0 10.6393C1.31299 11.5294 2.8414 12.0018 4.40236 12C9.68643 12 12.5751 7.38554 12.5751 3.38349C12.5751 3.25347 12.572 3.12215 12.5665 2.99213C13.1283 2.56369 13.6134 2.03315 13.9988 1.42537L14 1.42342Z" fill="white"/>
</svg>
