<svg width="28" height="24" viewBox="0 0 28 24" fill="none" xmlns="http://www.w3.org/2000/svg">
<path d="M23.6798 2.61687C21.8993 1.76037 19.9907 1.12731 17.9948 0.767334C17.9771 0.763694 17.9587 0.76604 17.9422 0.774046C17.9257 0.782052 17.912 0.795323 17.9029 0.812021C17.6585 1.27006 17.3862 1.86712 17.1953 2.33882C15.0786 2.00148 12.9266 2.00148 10.8098 2.33882C10.5972 1.81606 10.3575 1.30634 10.0918 0.812021C10.0827 0.795118 10.0691 0.781546 10.0527 0.773119C10.0363 0.764691 10.0178 0.761806 9.99982 0.764851C8.00514 1.12483 6.09657 1.75789 4.31486 2.61563C4.29953 2.62248 4.28653 2.63418 4.27762 2.64914C0.655999 8.32808 -0.336687 13.8668 0.150928 19.3359C0.152285 19.3493 0.156183 19.3623 0.162385 19.374C0.168587 19.3857 0.176963 19.396 0.187004 19.4042C2.30085 21.0457 4.65856 22.2962 7.16141 23.1033C7.17886 23.109 7.19752 23.109 7.21496 23.1032C7.2324 23.0974 7.2478 23.0862 7.25917 23.071C7.79682 22.3014 8.27629 21.4883 8.68594 20.6343C8.71037 20.5847 8.6871 20.5251 8.63822 20.5052C7.88644 20.2032 7.15802 19.8388 6.45966 19.4154C6.44712 19.4077 6.43654 19.3969 6.42889 19.3838C6.42124 19.3707 6.41675 19.3558 6.41583 19.3404C6.41491 19.3251 6.41758 19.3097 6.4236 19.2957C6.42963 19.2817 6.43882 19.2695 6.45035 19.2602C6.59699 19.1448 6.74362 19.0243 6.88327 18.9039C6.89584 18.8931 6.91098 18.8862 6.92701 18.884C6.94304 18.8818 6.95932 18.8844 6.97405 18.8915C11.5441 21.0812 16.4936 21.0812 21.0101 18.8915C21.0249 18.884 21.0414 18.8811 21.0576 18.883C21.0739 18.885 21.0893 18.8918 21.1021 18.9027C21.2417 19.0243 21.3872 19.1448 21.535 19.2602C21.5466 19.2693 21.556 19.2813 21.5622 19.2952C21.5684 19.3091 21.5713 19.3244 21.5706 19.3398C21.5699 19.3551 21.5657 19.3701 21.5582 19.3833C21.5508 19.3965 21.5404 19.4075 21.528 19.4154C20.8321 19.8424 20.1082 20.2036 19.3483 20.504C19.3366 20.5085 19.326 20.5156 19.3171 20.5249C19.3082 20.5341 19.3013 20.5453 19.2968 20.5576C19.2923 20.57 19.2903 20.5832 19.2909 20.5964C19.2916 20.6096 19.2949 20.6226 19.3006 20.6343C19.7195 21.4871 20.199 22.2989 20.7262 23.0697C20.7371 23.0856 20.7524 23.0974 20.7699 23.1036C20.7874 23.1098 20.8063 23.1101 20.8239 23.1045C23.3311 22.2997 25.6926 21.0486 27.8088 19.4042C27.8191 19.3965 27.8278 19.3865 27.8342 19.375C27.8407 19.3634 27.8447 19.3505 27.8461 19.3372C28.4279 13.014 26.8708 7.52 23.7159 2.65162C23.7081 2.6358 23.6953 2.62347 23.6798 2.61687ZM9.36906 16.0055C7.9935 16.0055 6.85883 14.6786 6.85883 13.0512C6.85883 11.4226 7.97139 10.0969 9.36906 10.0969C10.7772 10.0969 11.9014 11.4338 11.8793 13.0512C11.8793 14.6798 10.7667 16.0055 9.36906 16.0055ZM18.65 16.0055C17.2733 16.0055 16.1398 14.6786 16.1398 13.0512C16.1398 11.4226 17.2512 10.0969 18.65 10.0969C20.0582 10.0969 21.1824 11.4338 21.1603 13.0512C21.1603 14.6798 20.0594 16.0055 18.65 16.0055Z" fill="white"/>
</svg>
