<svg width="24" height="24" viewBox="0 0 24 24" fill="none" xmlns="http://www.w3.org/2000/svg">
<path d="M11.9272 8.21036C9.87574 8.21036 8.20157 9.88456 8.20157 11.9361C8.20157 13.9876 9.87574 15.6618 11.9272 15.6618C13.9787 15.6618 15.6529 13.9876 15.6529 11.9361C15.6529 9.88456 13.9787 8.21036 11.9272 8.21036ZM23.1014 11.9361C23.1014 10.3933 23.1154 8.86439 23.0287 7.32435C22.9421 5.53556 22.534 3.948 21.226 2.63994C19.9152 1.32909 18.3304 0.923818 16.5417 0.837173C14.9989 0.750528 13.47 0.764503 11.93 0.764503C10.3872 0.764503 8.85838 0.750528 7.31837 0.837173C5.52961 0.923818 3.94208 1.33189 2.63405 2.63994C1.32322 3.95079 0.917955 5.53556 0.831312 7.32435C0.744669 8.86719 0.758644 10.396 0.758644 11.9361C0.758644 13.4761 0.744669 15.0078 0.831312 16.5478C0.917955 18.3366 1.32602 19.9242 2.63405 21.2322C3.94488 22.5431 5.52961 22.9484 7.31837 23.035C8.86118 23.1216 10.39 23.1077 11.93 23.1077C13.4728 23.1077 15.0017 23.1216 16.5417 23.035C18.3304 22.9484 19.918 22.5403 21.226 21.2322C22.5368 19.9214 22.9421 18.3366 23.0287 16.5478C23.1182 15.0078 23.1014 13.4789 23.1014 11.9361ZM11.9272 17.6686C8.75497 17.6686 6.1948 15.1084 6.1948 11.9361C6.1948 8.76377 8.75497 6.20356 11.9272 6.20356C15.0995 6.20356 17.6596 8.76377 17.6596 11.9361C17.6596 15.1084 15.0995 17.6686 11.9272 17.6686ZM17.8944 7.30758C17.1538 7.30758 16.5556 6.70945 16.5556 5.96878C16.5556 5.22811 17.1538 4.62998 17.8944 4.62998C18.6351 4.62998 19.2332 5.22811 19.2332 5.96878C19.2334 6.14466 19.1989 6.31885 19.1317 6.48138C19.0645 6.64391 18.9659 6.79158 18.8416 6.91595C18.7172 7.04031 18.5695 7.13892 18.407 7.20612C18.2445 7.27332 18.0703 7.3078 17.8944 7.30758Z" fill="white"/>
</svg>
