<svg width="27" height="24" viewBox="0 0 27 24" fill="none" xmlns="http://www.w3.org/2000/svg">
<path d="M26.9674 3.41418C26.0087 3.86208 24.9789 4.16471 23.8962 4.30151C25.0133 3.59672 25.8491 2.48747 26.2476 1.18073C25.198 1.83804 24.0493 2.30071 22.8514 2.54864C22.0459 1.64178 20.9789 1.0407 19.8162 0.838716C18.6535 0.636735 17.46 0.845153 16.4212 1.43161C15.3823 2.01808 14.5561 2.94977 14.0709 4.08204C13.5857 5.21431 13.4686 6.48381 13.7377 7.69345C11.6111 7.58086 9.53065 6.99805 7.63144 5.98283C5.73223 4.96762 4.0567 3.54269 2.7136 1.80052C2.25435 2.6358 1.99029 3.60423 1.99029 4.63562C1.98978 5.5641 2.20663 6.47835 2.62161 7.29727C3.03659 8.11619 3.63686 8.81445 4.36917 9.3301C3.51989 9.30161 2.68934 9.05964 1.94666 8.62435V8.69698C1.94658 9.99922 2.3738 11.2614 3.15583 12.2693C3.93787 13.2772 5.02655 13.9688 6.23715 14.2267C5.4493 14.4516 4.62329 14.4847 3.82152 14.3236C4.16308 15.4441 4.82841 16.4239 5.72436 17.1259C6.62032 17.8279 7.70204 18.2169 8.8181 18.2385C6.92353 19.8066 4.58374 20.6573 2.17514 20.6535C1.74848 20.6536 1.32218 20.6274 0.898438 20.5748C3.34331 22.2323 6.18932 23.1119 9.09594 23.1085C18.9352 23.1085 24.3141 14.5161 24.3141 7.06396C24.3141 6.82186 24.3084 6.57732 24.2981 6.33522C25.3443 5.53744 26.2474 4.54954 26.9651 3.41781L26.9674 3.41418Z" fill="white"/>
</svg>
